<?xml version="1.0" encoding="utf-8"?>
<!-- Generator: Adobe Illustrator 18.1.1, SVG Export Plug-In . SVG Version: 6.00 Build 0)  -->
<svg version="1.1" id="Слой_1" xmlns="http://www.w3.org/2000/svg" xmlns:xlink="http://www.w3.org/1999/xlink" x="0px" y="0px"
	 viewBox="0 0 186.6 171.5" enable-background="new 0 0 186.6 171.5" xml:space="preserve">
<path fill="#BF4E45" d="M169.5,86V67.8h-16.1V33.6h-17.3V17.4h16.3V0h-17.7v17.1H118v16.5H68.1V16.8H51V0H33.3v17.4h16.5v16.2H33.7
	v34.2H16.5V86H0v51.6h17.1v-34.5h16.8v34.5h16v17.1h17.9v16.8h17.4v-17.4H68.1v-16.8H51V121h84.9v16.3H118v16.8h-16.5v17.4h17.4
	v-16.8h17.4v-17.1H153v-34.5h16.5v34.5h17.1V86H169.5z M67.2,86H51V51.8h16.3V86z M135.6,86h-16.3V51.8h16.3V86z"/>
</svg>
