<?xml version="1.0" encoding="utf-8"?>
<!-- Generator: Adobe Illustrator 18.1.1, SVG Export Plug-In . SVG Version: 6.00 Build 0)  -->
<svg version="1.1" id="Слой_1" xmlns="http://www.w3.org/2000/svg" xmlns:xlink="http://www.w3.org/1999/xlink" x="0px" y="0px"
	 viewBox="0 0 209 151.9" enable-background="new 0 0 209 151.9" xml:space="preserve">
<path fill="#BF4E45" d="M190,113.9V95.6h19V18.7h-19.8v38.1h-17.9V37.3h-18.7V20.1h18.7V0h-19.4v18.7h-19v18.7h-56V18.7h-19V0H38.4
	v20.1h18.7v17.2h-19v19.4H19.8V18.7H0v76.9h19v18.3h19.4v17.9H19v20.1h20.5v-18.3h18.3v-19.8h94.1v19h17.9v19h20.5v-20.1h-19v-17.9
	H190z M76.9,76.5H57.5V56.7h19.4V76.5z M152.3,76.5h-19.4V56.7h19.4V76.5z"/>
</svg>
